<?xml version="1.0" encoding="utf-8"?>
<!-- Generator: Adobe Illustrator 20.0.0, SVG Export Plug-In . SVG Version: 6.00 Build 0)  -->
<svg version="1.1" id="Layer_1" xmlns="http://www.w3.org/2000/svg" xmlns:xlink="http://www.w3.org/1999/xlink" x="0px" y="0px"
	 width="48px" height="48px" viewBox="0 0 48 48" enable-background="new 0 0 48 48" xml:space="preserve">
<g id="IAoOE2.tif">
	<g>
		<path fill="#FFFFFF" d="M3.098,43.5c0-11.031,0-22.062,0-33.094c0.03-0.15,0.068-0.299,0.087-0.451
			c0.22-1.673,1.083-2.896,2.58-3.667c1.381-0.712,2.86-0.398,4.348-0.468c0,1.316-0.016,2.564,0.004,3.811
			c0.031,1.961,1.399,3.625,3.321,3.982c0.622,0.116,1.274,0.094,1.912,0.086c1.96-0.022,3.605-1.388,3.982-3.318
			c0.092-0.47,0.088-0.962,0.095-1.444c0.013-1.025,0.004-2.051,0.004-3.09c2.833,0,5.606,0,8.437,0c0,0.193,0,0.36,0,0.527
			c0,1.031-0.012,2.062,0.004,3.093c0.033,2.137,1.404,3.819,3.452,4.177c0.593,0.104,1.214,0.064,1.822,0.057
			c2.01-0.023,3.767-1.518,3.986-3.523c0.136-1.251,0.067-2.525,0.09-3.789c0.003-0.18,0-0.36,0-0.568
			c1.073,0,2.071-0.005,3.069,0.001c2.518,0.016,4.601,2.069,4.604,4.599c0.011,10.983,0.009,21.965,0.001,32.948
			c-0.001,2.106-1.447,3.922-3.49,4.455c-0.208,0.054-0.413,0.116-0.62,0.174c-11.156,0-22.313,0-33.469,0
			c-0.087-0.03-0.172-0.074-0.261-0.089c-1.949-0.338-3.422-1.755-3.823-3.685C3.182,43.985,3.142,43.742,3.098,43.5z
			 M24.004,19.299c-4.125,0-8.249-0.001-12.374,0C9.834,19.3,8.53,20.59,8.528,22.399c-0.007,5.484-0.007,10.968,0,16.452
			c0.002,1.688,1.282,2.964,2.973,2.965c8.343,0.005,16.686,0.004,25.03,0c1.685-0.001,2.966-1.225,2.972-2.907
			c0.019-5.531,0.019-11.062,0-16.593c-0.006-1.77-1.317-3.016-3.077-3.016C32.285,19.298,28.144,19.299,24.004,19.299z"/>
		<path fill="#FFFFFF" d="M32.91,0c0.234,0.08,0.477,0.14,0.7,0.244c1.057,0.495,1.642,1.317,1.648,2.5
			c0.01,2.028,0.011,4.057,0.001,6.086c-0.008,1.543-1.154,2.727-2.651,2.764c-1.466,0.037-2.728-1.149-2.753-2.674
			c-0.035-2.075-0.028-4.151-0.001-6.226c0.017-1.262,0.84-2.25,2.059-2.588C31.998,0.081,32.078,0.036,32.16,0
			C32.41,0,32.66,0,32.91,0z"/>
		<path fill="#FFFFFF" d="M14.91,0c0.083,0.036,0.162,0.082,0.248,0.105c1.234,0.338,2.054,1.344,2.068,2.63
			c0.021,2.044,0.023,4.088,0.001,6.131c-0.017,1.531-1.224,2.722-2.703,2.726c-1.499,0.004-2.696-1.205-2.705-2.76
			c-0.011-1.95-0.005-3.9-0.003-5.851c0.002-1.582,0.702-2.493,2.228-2.909C14.086,0.061,14.122,0.025,14.16,0
			C14.41,0,14.66,0,14.91,0z"/>
		<path fill="#FFFFFF" d="M11.37,38.234c0-2.02,0-3.981,0-5.983c0.17-0.013,0.32-0.035,0.47-0.036
			c1.686-0.002,3.372,0.008,5.058-0.009c0.376-0.004,0.517,0.092,0.512,0.494c-0.02,1.701-0.008,3.403-0.01,5.104
			c0,0.137-0.018,0.273-0.03,0.43C15.361,38.234,13.385,38.234,11.37,38.234z"/>
		<path fill="#FFFFFF" d="M26.93,22.997c0,0.956,0,1.874,0,2.793c0,0.937-0.009,1.873,0.005,2.81
			c0.005,0.303-0.096,0.409-0.402,0.407c-1.748-0.01-3.497-0.006-5.245-0.004c-0.218,0-0.4-0.006-0.398-0.31
			c0.01-1.857,0.01-3.715,0.015-5.572c0-0.029,0.019-0.057,0.043-0.123C22.907,22.997,24.879,22.997,26.93,22.997z"/>
		<path fill="#FFFFFF" d="M36.457,23c0,1.99,0,3.951,0,5.963C36.298,28.977,36.15,29,36.001,29
			c-1.686,0.003-3.373-0.008-5.059,0.009c-0.377,0.004-0.519-0.096-0.514-0.495c0.019-1.702,0.008-3.404,0.009-5.106
			c0-0.123,0.016-0.247,0.027-0.409C32.452,23,34.426,23,36.457,23z"/>
		<path fill="#FFFFFF" d="M26.886,38.233c-2.002,0-3.963,0-5.957,0c-0.014-0.156-0.036-0.291-0.036-0.426
			c-0.002-1.702,0.006-3.403-0.007-5.105c-0.003-0.344,0.066-0.501,0.459-0.497c1.717,0.019,3.435,0.011,5.152,0.006
			c0.265-0.001,0.441,0.027,0.438,0.37c-0.013,1.811-0.008,3.622-0.01,5.433C26.924,38.073,26.904,38.133,26.886,38.233z"/>
		<path fill="#FFFFFF" d="M36.457,32.256c0,2.01,0,3.972,0,5.967c-1.996,0-3.969,0-5.973,0c-0.017-0.13-0.045-0.249-0.045-0.368
			c-0.003-1.733,0.003-3.467-0.007-5.2c-0.002-0.307,0.074-0.45,0.416-0.448c1.765,0.013,3.529,0.006,5.294,0.008
			C36.233,32.216,36.324,32.239,36.457,32.256z"/>
	</g>
</g>
</svg>
