<?xml version="1.0" encoding="utf-8"?>
<!-- Generator: Adobe Illustrator 20.0.0, SVG Export Plug-In . SVG Version: 6.00 Build 0)  -->
<svg version="1.1" id="Layer_1" xmlns="http://www.w3.org/2000/svg" xmlns:xlink="http://www.w3.org/1999/xlink" x="0px" y="0px"
	 width="48px" height="48px" viewBox="0 0 48 48" enable-background="new 0 0 48 48" xml:space="preserve">
<g id="VHSRnS.tif">
	<g>
		<path fill="#FFFFFF" d="M0,40.648c0-8.312,0-16.625,0-24.938c1.084,0.817,2.164,1.641,3.254,2.45
			c4.953,3.674,9.919,7.33,15.208,10.514c1.345,0.81,2.776,1.481,4.185,2.181c0.839,0.417,1.706,0.383,2.588,0.053
			c1.898-0.71,3.631-1.73,5.338-2.795c5.634-3.518,10.947-7.491,16.219-11.522c0.396-0.302,0.805-0.587,1.207-0.881
			c0,8.187,0,16.375,0,24.562c-0.018,0.025-0.044,0.048-0.052,0.077c-0.627,2.29-1.971,3.321-4.332,3.321
			c-5.543,0.001-11.087,0-16.63,0c-7.605,0-15.209,0.001-22.814-0.001c-2.037,0-3.399-0.965-4.078-2.874
			C0.075,40.742,0.032,40.697,0,40.648z"/>
		<path fill="#FFFFFF" d="M48,7.086c0,0.875,0,1.75,0,2.625c-0.116,0.073-0.238,0.136-0.346,0.219
			c-2.497,1.926-4.973,3.88-7.494,5.775c-3.819,2.87-7.671,5.699-11.805,8.108c-1.086,0.633-2.253,1.132-3.399,1.658
			c-0.655,0.301-1.347,0.26-2.005-0.018c-0.703-0.298-1.409-0.596-2.078-0.962c-2.978-1.628-5.777-3.54-8.493-5.563
			C8.225,15.832,4.124,12.662,0,9.523c0-0.906,0-1.812,0-2.719c0.064-0.175,0.128-0.35,0.193-0.524
			c0.614-1.644,2.071-2.593,4.001-2.594c13.203-0.002,26.405-0.001,39.608-0.001c0.125,0,0.25,0.001,0.375,0.006
			c1.693,0.068,3.151,1.195,3.645,2.818C47.881,6.702,47.941,6.894,48,7.086z"/>
	</g>
</g>
</svg>
