<?xml version="1.0" encoding="utf-8"?>
<!-- Generator: Adobe Illustrator 20.0.0, SVG Export Plug-In . SVG Version: 6.00 Build 0)  -->
<svg version="1.1" id="Layer_1" xmlns="http://www.w3.org/2000/svg" xmlns:xlink="http://www.w3.org/1999/xlink" x="0px" y="0px"
	 width="57px" height="48px" viewBox="0 0 57 48" enable-background="new 0 0 57 48" xml:space="preserve">
<g id="YxFj64.tif">
	<g>
		<path fill="#FFFFFF" d="M4.776,39.98c0-10.721,0-21.443,0-32.164c0.027-0.084,0.063-0.167,0.079-0.253
			c0.612-3.194,2.501-5.277,5.54-6.346c0.418-0.147,0.865-0.214,1.299-0.318c10.721,0,21.443,0,32.164,0
			c0.069,0.025,0.137,0.06,0.208,0.074c3.344,0.636,5.472,2.621,6.477,5.846c0.101,0.325,0.157,0.665,0.233,0.998
			c0,10.721,0,21.443,0,32.164c-0.027,0.084-0.063,0.167-0.08,0.254c-0.661,3.336-2.656,5.455-5.884,6.445
			c-0.311,0.095-0.635,0.147-0.953,0.219c-2.965,0-5.93,0-8.895,0c-0.008-0.089-0.024-0.178-0.024-0.267
			c-0.001-5.569-0.001-11.138,0-16.707c0-0.116,0.014-0.232,0.024-0.399c2.547,0,5.069,0,7.6,0c0-2.586,0-5.119,0-7.701
			c-2.556,0-5.078,0-7.606,0c0-1.156-0.042-2.264,0.012-3.368c0.054-1.101,0.782-1.723,1.882-1.723c1.752,0,3.503,0,5.255-0.001
			c0.157,0,0.314-0.014,0.46-0.02c0-2.574,0-5.095,0-7.623c-2.247,0-4.462-0.029-6.675,0.018c-0.63,0.013-1.284,0.169-1.877,0.392
			c-3.291,1.239-5.112,3.747-5.968,7.057c-0.338,1.307-0.267,2.644-0.268,3.975c-0.001,0.428,0,0.857,0,1.322
			c-1.895,0-3.731,0-5.579,0c-0.02,0.105-0.045,0.176-0.045,0.247c-0.002,2.365,0.002,4.731-0.008,7.096
			c-0.001,0.307,0.152,0.331,0.391,0.33c1.272-0.006,2.545-0.003,3.818-0.003c0.46,0,0.919,0,1.423,0c0,5.825,0,11.6,0,17.375
			c-5.361,0-10.721,0-16.082,0c-0.069-0.025-0.136-0.061-0.207-0.075c-3.345-0.635-5.472-2.621-6.478-5.845
			C4.907,40.653,4.853,40.313,4.776,39.98z"/>
	</g>
</g>
</svg>
