<?xml version="1.0" encoding="utf-8"?>
<!-- Generator: Adobe Illustrator 20.0.0, SVG Export Plug-In . SVG Version: 6.00 Build 0)  -->
<svg version="1.1" id="Layer_1" xmlns="http://www.w3.org/2000/svg" xmlns:xlink="http://www.w3.org/1999/xlink" x="0px" y="0px"
	 width="50px" height="44px" viewBox="0 0 50 44" enable-background="new 0 0 50 44" xml:space="preserve">
<g id="WwGra6.tif_1_">
	<g>
		<path fill="#FFFFFF" d="M33.682-0.034c1.314,2.297,2.622,4.598,3.944,6.891c4.025,6.979,8.055,13.955,12.082,20.932
			c0.09,0.156,0.17,0.318,0.282,0.529c-0.192,0.017-0.331,0.04-0.469,0.041c-4.579,0.027-9.159,0.048-13.738,0.086
			c-0.379,0.003-0.587-0.107-0.781-0.444C29.735,18.853,24.454,9.712,19.177,0.57c-0.081-0.14-0.151-0.287-0.316-0.604
			c1.163,0,2.207,0,3.25,0C25.968-0.034,29.825-0.034,33.682-0.034z"/>
		<path fill="#FFFFFF" d="M16.289,1.509c0.109,0.168,0.202,0.302,0.284,0.443c2.305,3.952,4.606,7.907,6.922,11.853
			c0.183,0.312,0.195,0.537,0.011,0.855c-5.306,9.171-10.602,18.348-15.9,27.523c-0.072,0.125-0.154,0.246-0.257,0.409
			c-0.109-0.169-0.202-0.303-0.284-0.443c-2.305-3.952-4.605-7.908-6.92-11.854c-0.183-0.311-0.199-0.535-0.015-0.854
			c5.307-9.171,10.603-18.347,15.902-27.523C16.104,1.793,16.186,1.673,16.289,1.509z"/>
		<path fill="#FFFFFF" d="M50,31.227c-0.11,0.21-0.174,0.34-0.246,0.466c-2.27,3.97-4.545,7.937-6.803,11.914
			c-0.181,0.319-0.373,0.428-0.736,0.427c-10.584-0.01-21.167-0.008-31.751-0.008c-0.145,0-0.289,0-0.507,0
			c0.098-0.199,0.16-0.345,0.238-0.482c2.268-3.971,4.541-7.94,6.801-11.916c0.176-0.31,0.364-0.437,0.733-0.436
			c10.584,0.011,21.167,0.009,31.751,0.01C49.626,31.202,49.772,31.216,50,31.227z"/>
	</g>
</g>
</svg>
