<?xml version="1.0" encoding="utf-8"?>
<!-- Generator: Adobe Illustrator 20.0.0, SVG Export Plug-In . SVG Version: 6.00 Build 0)  -->
<svg version="1.1" id="Layer_1" xmlns="http://www.w3.org/2000/svg" xmlns:xlink="http://www.w3.org/1999/xlink" x="0px" y="0px"
	 width="57px" height="48px" viewBox="0 0 57 48" enable-background="new 0 0 57 48" xml:space="preserve">
<g id="cyQ6YQ.tif">
	<g>
		<path fill="#FFFFFF" d="M5.531,36.845c0.075-0.371,0.142-0.744,0.228-1.112c0.66-2.849,2.463-4.754,5.015-6.022
			c2.139-1.063,4.439-1.541,6.795-1.765c1.197-0.114,2.401-0.158,3.665-0.237c-1.943-1.719-2.229-3.748-1.168-6.062
			c-0.657-0.047-1.274-0.072-1.886-0.138c-2.539-0.276-4.873-1.07-6.744-2.884c-2.215-2.146-3.012-4.841-2.828-7.851
			c0.282-4.601,3.379-8.308,8.634-9.443c1.26-0.272,2.575-0.39,3.866-0.405c4.361-0.049,8.722-0.019,13.084-0.019
			c0.105,0,0.21,0.012,0.354,0.02C34.512,1.001,34.5,1.06,34.466,1.096C33.581,2.029,32.7,2.965,31.8,3.882
			c-0.108,0.11-0.319,0.166-0.483,0.169c-1.007,0.015-2.015,0.008-3.101,0.008c0.081,0.09,0.108,0.136,0.148,0.163
			c2.056,1.361,3.04,3.367,3.43,5.724c0.601,3.632-0.815,6.436-3.561,8.711c-0.786,0.651-1.572,1.327-2.228,2.102
			c-0.959,1.133-0.919,2.247-0.03,3.43c0.229,0.304,0.477,0.606,0.763,0.853c0.752,0.649,1.539,1.257,2.296,1.901
			c1.082,0.92,2.213,1.795,3.213,2.799c3.764,3.78,3.862,10.445-1.399,14.193c-1.972,1.405-4.184,2.206-6.55,2.589
			c-3.952,0.639-7.865,0.508-11.694-0.762c-1.985-0.659-3.792-1.63-5.217-3.205c-0.957-1.057-1.577-2.282-1.779-3.705
			c-0.013-0.089-0.052-0.174-0.078-0.261C5.531,38.008,5.531,37.427,5.531,36.845z M20.203,29.376
			c-2.538,0.023-5.219,0.837-7.425,2.89c-2.729,2.539-2.881,6.23-0.403,9.017c0.965,1.085,2.139,1.887,3.506,2.349
			c3.614,1.224,7.163,0.952,10.613-0.629c1.043-0.478,1.9-1.22,2.573-2.16c2.02-2.821,1.417-6.78-1.405-9.143
			C25.628,29.997,23.225,29.393,20.203,29.376z M26.666,13.528c-0.101-0.842-0.15-1.624-0.296-2.387
			c-0.475-2.479-1.497-4.685-3.405-6.401c-1.202-1.081-2.601-1.737-4.252-1.636c-2.298,0.141-3.792,1.462-4.529,3.528
			c-1.299,3.642-0.605,7.024,1.729,10.063c1.063,1.383,2.469,2.315,4.183,2.739c3.015,0.746,5.486-0.702,6.24-3.697
			C26.521,15.001,26.565,14.229,26.666,13.528z"/>
		<path fill="#FFFFFF" d="M52.552,10.855c-2.062,0-4.123,0-6.234,0c0,2.077,0,4.119,0,6.188c-1.051,0-2.053,0-3.106,0
			c0-2.052,0-4.092,0-6.174c-2.094,0-4.137,0-6.217,0c0-1.055,0-2.068,0-3.124c2.052,0,4.095,0,6.186,0c0-2.083,0-4.124,0-6.198
			c1.05,0,2.052,0,3.104,0c0,2.035,0,4.075,0,6.186c2.122,0,4.194,0,6.267,0C52.552,8.773,52.552,9.814,52.552,10.855z"/>
	</g>
</g>
</svg>
