<?xml version="1.0" encoding="utf-8"?>
<!-- Generator: Adobe Illustrator 20.0.0, SVG Export Plug-In . SVG Version: 6.00 Build 0)  -->
<svg version="1.1" id="Layer_1" xmlns="http://www.w3.org/2000/svg" xmlns:xlink="http://www.w3.org/1999/xlink" x="0px" y="0px"
	 width="57px" height="48px" viewBox="0 0 57 48" enable-background="new 0 0 57 48" xml:space="preserve">
<g id="_x34_1OJLb.tif">
	<g>
		<path fill="#FFFFFF" d="M5.463,37.285c0-6.678,0-13.357,0-20.035c0.088-0.012,0.177-0.033,0.265-0.033
			c3.996-0.002,7.993-0.002,11.989,0c0.108,0,0.215,0.03,0.341,0.048c-3.744,5.955-1.722,12.749,2.408,16.218
			c4.17,3.502,10.303,3.869,14.861,0.776c2.305-1.564,3.931-3.67,4.795-6.317c1.223-3.748,0.713-7.308-1.368-10.7
			c0.196-0.012,0.325-0.026,0.455-0.026c3.951-0.001,7.903-0.001,11.854,0.001c0.133,0,0.266,0.022,0.4,0.034
			c0,6.678,0,13.357,0,20.035c-0.028,0.098-0.07,0.195-0.081,0.296c-0.51,4.418-3.827,8.094-8.177,9.053
			c-0.449,0.099-0.903,0.177-1.355,0.265c-8.924,0-17.849,0-26.773,0c-0.098-0.028-0.195-0.07-0.295-0.081
			c-4.156-0.48-7.705-3.461-8.869-7.48C5.718,38.666,5.611,37.969,5.463,37.285z"/>
		<path fill="#FFFFFF" d="M51.463,10.511c0,1.557,0,3.115,0,4.672c-0.119,0.009-0.238,0.026-0.356,0.026
			c-4.564,0.001-9.128,0.005-13.692-0.011c-0.221-0.001-0.487-0.128-0.656-0.28c-4.82-4.316-11.879-4.313-16.678,0.007
			c-0.177,0.159-0.467,0.273-0.704,0.274c-4.504,0.016-9.008,0.012-13.512,0.011c-0.134,0-0.268-0.017-0.401-0.026
			c0-1.557,0-3.115,0-4.672c0.026-0.083,0.066-0.165,0.076-0.25c0.284-2.419,1.289-4.495,2.998-6.223
			C8.991,3.58,9.507,3.184,9.995,2.76c0.038,0.025,0.076,0.05,0.115,0.075c0,2.938,0,5.876,0,8.828c0.685,0,1.318,0,1.991,0
			c0-0.177,0-0.324,0-0.471c0-1.242,0-2.484,0-3.727c0-1.811-0.005-3.622,0.01-5.433c0.001-0.154,0.105-0.401,0.22-0.445
			c0.556-0.208,1.132-0.361,1.76-0.551c0,3.588,0,7.099,0,10.63c0.675,0,1.308,0,1.957,0c0-3.55,0-7.073,0-10.578
			c-0.343-0.068-0.657-0.129-0.971-0.191c8.924,0,17.849,0,26.773,0c0.099,0.027,0.197,0.068,0.298,0.08
			c4.189,0.493,7.713,3.471,8.876,7.528C51.213,9.163,51.319,9.842,51.463,10.511z M40.798,6.484c0,1.751,0,3.461,0,5.168
			c1.74,0,3.449,0,5.145,0c0-1.744,0-3.453,0-5.168C44.217,6.484,42.529,6.484,40.798,6.484z"/>
		<path fill="#FFFFFF" d="M28.442,32.851c-4.9-0.023-8.815-3.986-8.788-8.896c0.026-4.838,4.023-8.785,8.852-8.743
			c4.887,0.043,8.788,3.991,8.767,8.874C37.253,28.93,33.28,32.873,28.442,32.851z M28.45,30.846
			c3.775,0.008,6.832-3.033,6.837-6.801c0.005-3.755-3.023-6.811-6.766-6.829c-3.806-0.018-6.868,3.009-6.882,6.803
			C21.625,27.781,24.674,30.838,28.45,30.846z"/>
	</g>
</g>
</svg>
