<?xml version="1.0" encoding="utf-8"?>
<!-- Generator: Adobe Illustrator 15.0.0, SVG Export Plug-In . SVG Version: 6.00 Build 0)  -->
<!DOCTYPE svg PUBLIC "-//W3C//DTD SVG 1.1//EN" "http://www.w3.org/Graphics/SVG/1.1/DTD/svg11.dtd">
<svg version="1.1" id="Layer_1" xmlns="http://www.w3.org/2000/svg" xmlns:xlink="http://www.w3.org/1999/xlink" x="0px" y="0px"
	 width="57px" height="48px" viewBox="0 0 57 48" enable-background="new 0 0 57 48" xml:space="preserve">
<g>
	<path fill="#FFFFFF" d="M48.972,3.53C47.283,1.844,45.252,1,42.875,1h-28.75C11.75,1,9.718,1.844,8.031,3.53
		C6.344,5.218,5.5,7.249,5.5,9.625v28.749c0,2.377,0.844,4.408,2.531,6.097C9.718,46.155,11.75,47,14.125,47h28.75
		c2.377,0,4.408-0.845,6.096-2.529c1.685-1.688,2.529-3.72,2.529-6.097V9.625C51.5,7.249,50.655,5.218,48.972,3.53z M19.516,39.512
		h-6.918V18.728h6.918V39.512z M18.888,14.881c-0.719,0.689-1.667,1.033-2.846,1.033h-0.029c-1.139,0-2.062-0.344-2.769-1.033
		c-0.71-0.689-1.065-1.543-1.065-2.561c0-1.038,0.366-1.896,1.093-2.576c0.728-0.679,1.672-1.018,2.83-1.018
		c1.159,0,2.086,0.339,2.786,1.018c0.698,0.68,1.058,1.538,1.078,2.576C19.965,13.337,19.606,14.19,18.888,14.881z M44.403,39.512
		h-6.918v-11.11c0-3.135-1.158-4.7-3.473-4.7c-0.88,0-1.618,0.244-2.22,0.733c-0.598,0.49-1.047,1.083-1.348,1.78
		c-0.139,0.359-0.207,0.92-0.207,1.679v11.618h-6.919c0.06-12.538,0.06-19.465,0-20.784h6.919v2.936
		c1.454-2.273,3.52-3.414,6.2-3.414c2.394,0,4.321,0.789,5.777,2.365c1.459,1.579,2.188,3.905,2.188,6.978V39.512L44.403,39.512z"/>
</g>
</svg>
