<?xml version="1.0" encoding="utf-8"?>
<!-- Generator: Adobe Illustrator 15.0.0, SVG Export Plug-In . SVG Version: 6.00 Build 0)  -->
<!DOCTYPE svg PUBLIC "-//W3C//DTD SVG 1.1//EN" "http://www.w3.org/Graphics/SVG/1.1/DTD/svg11.dtd">
<svg version="1.1" id="Layer_1" xmlns="http://www.w3.org/2000/svg" xmlns:xlink="http://www.w3.org/1999/xlink" x="0px" y="0px"
	 width="24.253px" height="24.254px" viewBox="16.373 11.269 24.253 24.254" enable-background="new 16.373 11.269 24.253 24.254"
	 xml:space="preserve">
<circle fill="#FFF200" cx="28.5" cy="23.396" r="12.127"/>
<g>
	<path d="M28.76,26.164h-0.51c-0.054-0.881-0.23-1.945-0.532-3.196l-0.604-2.525c-0.363-1.514-0.542-2.599-0.542-3.254
		c0-0.593,0.177-1.073,0.531-1.436c0.354-0.362,0.818-0.543,1.389-0.543c0.558,0,1.019,0.184,1.383,0.549
		c0.367,0.366,0.549,0.831,0.549,1.396c0,0.586-0.192,1.682-0.579,3.287l-0.612,2.525C29.02,23.862,28.86,24.928,28.76,26.164z
		 M28.516,27.82c0.52,0,0.96,0.184,1.326,0.548c0.367,0.368,0.551,0.813,0.551,1.339c0,0.517-0.184,0.959-0.551,1.325
		c-0.366,0.364-0.808,0.548-1.326,0.548c-0.514,0-0.958-0.184-1.324-0.548c-0.366-0.366-0.55-0.81-0.55-1.325
		s0.184-0.962,0.545-1.332C27.547,28.004,27.991,27.82,28.516,27.82z"/>
</g>
</svg>
