<?xml version="1.0" encoding="utf-8"?>
<!-- Generator: Adobe Illustrator 20.0.0, SVG Export Plug-In . SVG Version: 6.00 Build 0)  -->
<svg version="1.1" id="Layer_1" xmlns="http://www.w3.org/2000/svg" xmlns:xlink="http://www.w3.org/1999/xlink" x="0px" y="0px"
	 width="57px" height="48px" viewBox="0 0 57 48" enable-background="new 0 0 57 48" xml:space="preserve">
<g id="dcVqXV.tif">
	<g>
		<path d="M16.848,29.246c0.223-0.88,0.356-1.623,0.603-2.326c0.355-1.014,0.366-1.924-0.432-2.748
			c-0.178-0.184-0.271-0.456-0.387-0.695c-2.437-5.016-1.096-11.311,3.205-14.954c3.186-2.698,6.922-3.495,10.966-2.98
			c3.722,0.474,6.699,2.228,8.686,5.487c0.927,1.521,1.468,3.19,1.601,4.959c0.295,3.918-0.279,7.668-2.462,11.03
			c-1.389,2.139-3.288,3.575-5.883,3.962c-3.775,0.563-6.586-2.42-5.49-5.987c0.547-1.779,1.078-3.565,1.559-5.362
			c0.292-1.089,0.541-2.198,0.693-3.314c0.228-1.68-0.505-3.209-1.717-3.825c-1.349-0.686-3.132-0.39-4.344,0.842
			c-0.548,0.557-1.028,1.239-1.352,1.949c-1.09,2.39-0.912,4.828-0.108,7.269c0.117,0.354,0.164,0.784,0.081,1.141
			c-0.882,3.823-1.738,7.654-2.72,11.452c-0.929,3.594-1.268,7.203-0.7,10.877c0.048,0.309,0.318,0.584,0.485,0.874
			c0.284-0.178,0.677-0.289,0.836-0.546c1.556-2.511,3.002-5.078,3.742-7.975c0.527-2.062,1.07-4.119,1.624-6.174
			c0.051-0.188,0.207-0.371,0.364-0.49c0.047-0.036,0.311,0.123,0.398,0.246c1.582,2.258,3.886,3.028,6.484,2.991
			c4.537-0.066,8.077-2.136,10.757-5.717c2.318-3.097,3.396-6.652,3.602-10.479c0.37-6.878-2.319-12.255-8.419-15.479
			c-6.711-3.547-13.54-2.984-20.022,0.754c-6.735,3.884-8.646,11.406-7.293,17.316c0.626,2.736,1.816,5.195,4.102,6.972
			C15.748,28.661,16.269,28.902,16.848,29.246z"/>
		<path fill="#FFFFFF" d="M16.848,29.246c-0.579-0.345-1.099-0.586-1.54-0.929c-2.286-1.777-3.476-4.236-4.102-6.972
			c-1.352-5.91,0.558-13.432,7.293-17.316c6.482-3.738,13.311-4.301,20.022-0.754c6.099,3.223,8.788,8.6,8.419,15.479
			c-0.206,3.827-1.284,7.382-3.602,10.479c-2.68,3.582-6.219,5.652-10.757,5.717c-2.598,0.038-4.902-0.733-6.484-2.991
			c-0.087-0.124-0.351-0.282-0.398-0.246c-0.157,0.119-0.314,0.303-0.364,0.49c-0.554,2.055-1.097,4.112-1.624,6.174
			c-0.74,2.898-2.186,5.464-3.742,7.975c-0.159,0.256-0.552,0.367-0.836,0.546c-0.167-0.291-0.437-0.565-0.485-0.874
			c-0.568-3.674-0.229-7.283,0.7-10.877c0.982-3.798,1.837-7.629,2.72-11.452c0.082-0.357,0.035-0.787-0.081-1.141
			c-0.805-2.441-0.983-4.878,0.108-7.269c0.324-0.71,0.804-1.392,1.352-1.949c1.212-1.232,2.995-1.528,4.344-0.842
			c1.212,0.616,1.945,2.145,1.717,3.825c-0.152,1.116-0.401,2.225-0.693,3.314c-0.482,1.798-1.012,3.583-1.559,5.362
			c-1.096,3.567,1.715,6.55,5.49,5.987c2.594-0.387,4.494-1.823,5.883-3.962c2.183-3.362,2.757-7.112,2.462-11.03
			c-0.133-1.769-0.674-3.438-1.601-4.959c-1.987-3.259-4.963-5.013-8.686-5.487c-4.044-0.515-7.781,0.282-10.966,2.98
			c-4.301,3.643-5.642,9.938-3.205,14.954c0.116,0.239,0.208,0.511,0.387,0.695c0.798,0.824,0.787,1.734,0.432,2.748
			C17.204,27.624,17.071,28.367,16.848,29.246z"/>
	</g>
</g>
</svg>
