<?xml version="1.0" encoding="utf-8"?>
<!-- Generator: Adobe Illustrator 20.0.0, SVG Export Plug-In . SVG Version: 6.00 Build 0)  -->
<svg version="1.1" id="Layer_1" xmlns="http://www.w3.org/2000/svg" xmlns:xlink="http://www.w3.org/1999/xlink" x="0px" y="0px"
	 width="50px" height="44px" viewBox="0 0 50 44" enable-background="new 0 0 50 44" xml:space="preserve">
<g id="g87304.tif">
	<g>
		<path fill="#FFFFFF" d="M37.977,0c0.516,0,1.031,0,1.547,0c0.064,0.026,0.126,0.065,0.193,0.077
			c3.543,0.626,5.83,2.697,6.966,6.076C46.834,6.607,46.896,7.092,47,7.563c0,0.458,0,0.917,0,1.375
			c-0.031,0.137-0.072,0.273-0.09,0.411c-0.527,3.905-4.261,7.183-8.198,7.136c-2.613-0.032-4.693-1.204-6.344-3.185
			c-0.159-0.191-0.269-0.267-0.524-0.136c-4.136,2.118-8.277,4.228-12.421,6.33c-0.243,0.123-0.283,0.237-0.21,0.495
			c0.377,1.338,0.385,2.687-0.004,4.023c-0.088,0.302,0.018,0.394,0.254,0.513c4.106,2.083,8.21,4.17,12.307,6.268
			c0.282,0.144,0.42,0.119,0.628-0.129c1.6-1.916,3.621-3.068,6.146-3.145c3.603-0.11,7.032,2.458,8.105,6.008
			c0.152,0.502,0.237,1.023,0.353,1.536c0,0.458,0,0.917,0,1.375c-0.028,0.108-0.063,0.215-0.084,0.325
			c-0.657,3.569-2.767,5.852-6.188,6.958c-0.417,0.135-0.86,0.188-1.291,0.279c-0.458,0-0.917,0-1.375,0
			c-0.096-0.027-0.189-0.067-0.287-0.079c-1.007-0.125-1.945-0.454-2.829-0.943c-3.374-1.863-5.1-5.638-4.17-9.171
			c0.09-0.342,0.005-0.466-0.286-0.613c-3.432-1.734-6.856-3.483-10.283-5.227c-0.775-0.394-1.55-0.786-2.34-1.186
			c-0.109,0.131-0.198,0.24-0.29,0.347c-1.601,1.871-3.592,3.018-6.082,3.102c-3.871,0.13-7.562-2.861-8.32-6.671
			C3.122,23.296,3.058,23.035,3,22.773c0-0.516,0-1.031,0-1.547c0.029-0.093,0.069-0.184,0.086-0.279
			c0.568-3.172,2.362-5.399,5.315-6.612c2.834-1.164,5.474-0.594,7.856,1.253c0.595,0.461,1.11,1.024,1.709,1.584
			c-0.07,0.005-0.038,0.012-0.015,0c4.231-2.151,8.463-4.301,12.687-6.465c0.095-0.049,0.164-0.266,0.149-0.392
			c-0.075-0.623-0.254-1.24-0.267-1.862c-0.077-3.737,2.634-7.244,6.297-8.187C37.2,0.166,37.59,0.088,37.977,0z M38.737,13.756
			c3.246-0.002,5.516-2.272,5.519-5.517c0.003-3.212-2.277-5.492-5.495-5.495c-3.242-0.003-5.53,2.274-5.513,5.516
			C33.264,11.432,35.457,13.749,38.737,13.756z M44.256,35.753c0.008-3.215-2.268-5.5-5.481-5.51
			c-3.306-0.011-5.5,2.319-5.527,5.458c-0.028,3.256,2.25,5.552,5.475,5.555C41.972,41.258,44.248,38.995,44.256,35.753z
			 M16.756,22.012c-0.022-3.163-2.184-5.505-5.471-5.518c-3.234-0.012-5.528,2.246-5.541,5.448
			c-0.013,3.244,2.231,5.538,5.427,5.564C14.504,27.535,16.721,25.206,16.756,22.012z"/>
	</g>
</g>
</svg>
