<?xml version="1.0" encoding="utf-8"?>
<!-- Generator: Adobe Illustrator 20.0.0, SVG Export Plug-In . SVG Version: 6.00 Build 0)  -->
<svg version="1.1" id="Layer_1" xmlns="http://www.w3.org/2000/svg" xmlns:xlink="http://www.w3.org/1999/xlink" x="0px" y="0px"
	 width="57px" height="48px" viewBox="0 0 57 48" enable-background="new 0 0 57 48" xml:space="preserve">
<g id="TwBzyS.tif">
	<g>
		<path d="M0.464,41.889c0.228,0.138,0.455,0.28,0.686,0.415c6.633,3.893,13.774,5.255,21.383,4.302
			c6.884-0.862,12.941-3.566,17.924-8.401c7.069-6.859,10.557-15.284,10.51-25.145c-0.003-0.531,0.164-0.841,0.577-1.151
			c1.834-1.378,3.401-3.025,4.742-4.886c0.106-0.147,0.189-0.311,0.251-0.415c-2.022,0.552-4.044,1.103-6.067,1.655
			c-0.037-0.079-0.074-0.158-0.111-0.238c2.283-1.517,3.901-3.532,4.828-6.259c-2.202,1.266-4.392,2.129-6.709,2.679
			c-0.465,0.11-0.773,0.023-1.123-0.314c-3.454-3.313-8.542-4.16-12.862-2.168C30.16,3.96,27.499,8.37,27.76,13.139
			c0.036,0.657,0.124,1.31,0.195,2.04c-9.693-0.683-17.59-4.744-23.885-12.123c-1.485,2.699-1.903,5.471-1.25,8.401
			c0.651,2.924,2.295,5.204,4.69,6.991c-0.047,0.083-0.093,0.166-0.14,0.249c-1.637-0.459-3.273-0.918-4.988-1.399
			c0.378,5.815,3.417,9.562,9.008,11.387c-0.8,0.16-1.585,0.299-2.374,0.324c-0.795,0.026-1.594-0.061-2.471-0.103
			c0.445,1.461,1.173,2.719,2.133,3.841c2.218,2.593,5.067,3.94,8.642,4.159C12.21,40.747,6.64,42.284,0.464,41.889z"/>
		<path fill="#FFFFFF" d="M0.464,41.889c6.175,0.395,11.746-1.142,16.856-4.983c-3.575-0.219-6.424-1.566-8.642-4.159
			c-0.96-1.122-1.688-2.38-2.133-3.841c0.877,0.041,1.676,0.128,2.471,0.103c0.789-0.025,1.573-0.164,2.374-0.324
			c-5.591-1.824-8.63-5.572-9.008-11.387c1.715,0.481,3.351,0.94,4.988,1.399c0.047-0.083,0.093-0.166,0.14-0.249
			c-2.395-1.787-4.039-4.067-4.69-6.991C2.168,8.526,2.586,5.754,4.07,3.055c6.295,7.379,14.192,11.44,23.885,12.123
			c-0.071-0.73-0.159-1.383-0.195-2.04c-0.261-4.769,2.4-9.179,6.732-11.177c4.32-1.992,9.408-1.145,12.862,2.168
			c0.35,0.336,0.658,0.424,1.123,0.314c2.317-0.55,4.507-1.413,6.709-2.679c-0.927,2.728-2.545,4.742-4.828,6.259
			c0.037,0.079,0.074,0.158,0.111,0.238c2.022-0.552,4.045-1.103,6.067-1.655c-0.062,0.103-0.145,0.268-0.251,0.415
			c-1.341,1.861-2.907,3.508-4.742,4.886c-0.413,0.31-0.579,0.621-0.577,1.151c0.047,9.862-3.441,18.286-10.51,25.145
			c-4.983,4.835-11.04,7.539-17.924,8.401c-7.608,0.953-14.75-0.408-21.383-4.302C0.919,42.169,0.693,42.027,0.464,41.889z"/>
	</g>
</g>
</svg>
