<?xml version="1.0" encoding="utf-8"?>
<!-- Generator: Adobe Illustrator 20.0.0, SVG Export Plug-In . SVG Version: 6.00 Build 0)  -->
<svg version="1.1" id="Layer_1" xmlns="http://www.w3.org/2000/svg" xmlns:xlink="http://www.w3.org/1999/xlink" x="0px" y="0px"
	 width="57px" height="48px" viewBox="0 0 57 48" enable-background="new 0 0 57 48" xml:space="preserve">
<g id="nagcsh.tif">
	<g>
		<path fill="#FFFFFF" d="M54.884,9.201c0,0.844,0,1.688,0,2.532c-0.012,0.06-0.034,0.12-0.035,0.18
			c-0.014,0.604-0.118,1.197-0.235,1.787c-0.299,1.504-0.787,2.95-1.375,4.364c-0.91,2.19-2.039,4.265-3.274,6.285
			c-1.644,2.688-3.469,5.25-5.381,7.752c-1.778,2.326-3.618,4.6-5.628,6.732c-1.501,1.593-3.077,3.106-4.81,4.449
			c-1.25,0.968-2.562,1.837-3.999,2.506c-1.039,0.484-2.117,0.845-3.255,1.009c-0.218,0.031-0.435,0.067-0.653,0.101
			c-0.318,0-0.637,0-0.955,0c-0.161-0.034-0.321-0.071-0.482-0.102c-0.91-0.174-1.706-0.589-2.425-1.162
			c-0.825-0.658-1.487-1.462-2.071-2.334c-0.808-1.205-1.443-2.501-1.995-3.839c-0.174-0.421-0.366-0.84-0.486-1.278
			c-1.352-4.924-2.694-9.851-4.033-14.778c-0.426-1.568-0.878-3.127-1.464-4.644c-0.379-0.981-0.804-1.941-1.364-2.836
			c-0.272-0.435-0.575-0.847-0.948-1.202c-0.288-0.275-0.606-0.502-0.985-0.636c-0.362-0.127-0.714-0.142-1.06,0.053
			c-0.307,0.173-0.628,0.323-0.923,0.514c-0.865,0.559-1.72,1.134-2.578,1.703c-0.062,0.041-0.124,0.081-0.196,0.128
			c-0.171-0.219-0.332-0.425-0.492-0.632c-0.623-0.803-1.246-1.607-1.871-2.408C1.864,13.39,1.843,13.3,1.743,13.311
			c0-0.028,0-0.055,0-0.083c0.103,0.021,0.145-0.068,0.202-0.119c2.182-1.939,4.369-3.872,6.539-5.825
			c1.358-1.223,2.744-2.41,4.234-3.471c0.868-0.618,1.768-1.184,2.732-1.648c1.007-0.485,2.059-0.696,3.178-0.613
			c1.459,0.109,2.693,0.677,3.696,1.744c0.623,0.663,1.086,1.43,1.46,2.253c0.544,1.197,0.89,2.456,1.122,3.745
			c0.173,0.959,0.313,1.924,0.472,2.886c0.297,1.794,0.596,3.587,0.898,5.38c0.337,2.005,0.724,3.999,1.212,5.973
			c0.329,1.329,0.692,2.648,1.197,3.924c0.235,0.592,0.498,1.171,0.844,1.708c0.218,0.339,0.464,0.655,0.789,0.901
			c0.429,0.325,0.895,0.399,1.381,0.155c0.258-0.129,0.507-0.285,0.735-0.461c0.593-0.461,1.083-1.027,1.552-1.61
			c0.881-1.096,1.656-2.267,2.398-3.46c0.877-1.411,1.703-2.849,2.369-4.374c0.461-1.055,0.851-2.132,0.963-3.29
			c0.066-0.685,0.076-1.368-0.07-2.045c-0.273-1.27-1.035-2.059-2.31-2.345c-0.608-0.136-1.222-0.144-1.837-0.098
			c-1.063,0.08-2.082,0.351-3.068,0.753c-0.061,0.025-0.124,0.045-0.217,0.078c0.023-0.089,0.035-0.147,0.052-0.204
			c0.41-1.301,0.891-2.573,1.489-3.8c0.805-1.651,1.787-3.182,3.067-4.511c2.379-2.47,5.306-3.722,8.708-3.922
			c0.089-0.005,0.177-0.024,0.265-0.036c0.526,0,1.052,0,1.578,0c0.074,0.012,0.149,0.031,0.223,0.035
			c0.596,0.025,1.183,0.115,1.761,0.257c2.082,0.51,3.608,1.713,4.524,3.661c0.596,1.268,0.87,2.616,0.965,4.007
			C54.851,8.972,54.87,9.087,54.884,9.201z"/>
	</g>
</g>
</svg>
