<?xml version="1.0" encoding="utf-8"?>
<!-- Generator: Adobe Illustrator 20.0.0, SVG Export Plug-In . SVG Version: 6.00 Build 0)  -->
<svg version="1.1" id="Layer_1" xmlns="http://www.w3.org/2000/svg" xmlns:xlink="http://www.w3.org/1999/xlink" x="0px" y="0px"
	 width="57px" height="48px" viewBox="0 0 57 48" enable-background="new 0 0 57 48" xml:space="preserve">
<g id="Outline_Color_copy_2">
	<path fill="#FFFFFF" d="M41.189,31.614c-0.364,0-0.627,0.102-0.787,0.319c-0.158,0.204-0.235,0.557-0.235,1.043v1.174h2.023v-1.174
		c0-0.489-0.081-0.839-0.242-1.043C41.796,31.716,41.538,31.614,41.189,31.614z"/>
	<path fill="#FFFFFF" d="M33.302,31.573c-0.165,0-0.326,0.034-0.484,0.111c-0.158,0.077-0.317,0.195-0.473,0.355v7.25
		c0.186,0.186,0.367,0.328,0.543,0.41c0.176,0.084,0.358,0.127,0.552,0.127c0.281,0,0.484-0.081,0.615-0.249
		c0.131-0.163,0.201-0.425,0.201-0.801v-6.01c0-0.391-0.081-0.692-0.242-0.894C33.847,31.673,33.607,31.573,33.302,31.573z"/>
	<path fill="#FFFFFF" d="M46.016,22.554c-1.88-1.878-17.717-1.903-17.717-1.901c0-0.002-15.834,0.023-17.719,1.898
		c-1.885,1.88-1.889,11.162-1.889,11.214c0,0.07,0.005,9.336,1.889,11.216c1.885,1.876,17.719,1.916,17.719,1.916
		s15.836-0.041,17.717-1.914c1.892-1.887,1.907-11.216,1.907-11.216C47.923,33.713,47.903,24.434,46.016,22.554z M20.771,28.023
		h-2.668v13.481h-2.579V28.023h-2.665v-2.292h7.913V28.023z M28.308,41.502h-2.283v-1.278c-0.425,0.473-0.862,0.833-1.324,1.077
		c-0.457,0.251-0.898,0.369-1.328,0.369c-0.532,0-0.923-0.17-1.197-0.518c-0.262-0.348-0.4-0.862-0.4-1.559v-9.729h2.285v8.926
		c0,0.276,0.048,0.475,0.14,0.6c0.102,0.124,0.258,0.186,0.468,0.186c0.167,0,0.382-0.081,0.64-0.247
		c0.258-0.163,0.491-0.371,0.71-0.622v-8.84h2.288V41.502z M36.612,39.099c0,0.824-0.179,1.453-0.539,1.894
		c-0.355,0.441-0.878,0.656-1.557,0.656c-0.45,0-0.846-0.081-1.195-0.251c-0.351-0.17-0.681-0.428-0.977-0.787v0.894h-2.312V25.731
		h2.312v5.08c0.31-0.353,0.636-0.627,0.98-0.808c0.351-0.186,0.699-0.276,1.054-0.276c0.726,0,1.278,0.249,1.659,0.74
		c0.385,0.498,0.575,1.224,0.575,2.177V39.099z M44.545,35.967h-4.376v2.188c0,0.613,0.075,1.039,0.224,1.276
		c0.154,0.238,0.41,0.353,0.776,0.353c0.378,0,0.643-0.1,0.794-0.301c0.149-0.201,0.229-0.64,0.229-1.328v-0.532h2.353v0.597
		c0,1.195-0.285,2.093-0.862,2.699c-0.57,0.602-1.428,0.901-2.566,0.901c-1.023,0-1.833-0.317-2.421-0.959
		c-0.588-0.638-0.887-1.516-0.887-2.641v-5.224c0-1.007,0.326-1.833,0.973-2.466c0.647-0.636,1.478-0.953,2.505-0.953
		c1.048,0,1.853,0.294,2.417,0.882c0.563,0.588,0.842,1.432,0.842,2.536C44.545,32.996,44.545,35.967,44.545,35.967z"/>
	<path fill="#FFFFFF" d="M41.18,18.273h-2.577v-1.416c-0.468,0.52-0.964,0.921-1.482,1.192c-0.514,0.274-1.011,0.41-1.493,0.41
		c-0.6,0-1.045-0.192-1.346-0.572c-0.301-0.382-0.453-0.953-0.453-1.72V5.453h2.573v9.829c0,0.303,0.059,0.523,0.167,0.658
		c0.104,0.136,0.283,0.204,0.523,0.204c0.188,0,0.428-0.091,0.717-0.269c0.287-0.179,0.554-0.41,0.794-0.69V5.455h2.577
		L41.18,18.273L41.18,18.273z"/>
	<path fill="#FFFFFF" d="M30.722,6.061c-0.683-0.622-1.559-0.932-2.622-0.932c-1.168,0-2.102,0.294-2.794,0.882
		C24.609,6.6,24.262,7.39,24.265,8.385v6.643c0,1.088,0.339,1.955,1.011,2.6c0.679,0.643,1.582,0.964,2.706,0.964
		c1.172,0,2.088-0.312,2.76-0.937c0.665-0.624,0.998-1.484,0.998-2.579V8.458C31.741,7.482,31.399,6.681,30.722,6.061z
		 M29.116,15.273c0,0.342-0.102,0.611-0.308,0.81c-0.208,0.195-0.482,0.292-0.83,0.292c-0.342,0-0.604-0.095-0.787-0.287
		c-0.183-0.195-0.276-0.466-0.276-0.815V8.29c0-0.281,0.102-0.507,0.294-0.681c0.197-0.172,0.453-0.258,0.769-0.258
		c0.337,0,0.613,0.086,0.824,0.258c0.21,0.172,0.317,0.4,0.317,0.681v6.983H29.116z"/>
	<polygon fill="#FFFFFF" points="17.246,0.898 14.325,0.898 17.778,11.388 17.778,18.273 20.678,18.273 20.678,11.062 24.052,0.898 
		21.104,0.898 19.312,7.842 19.131,7.842 	"/>
</g>
</svg>
