<?xml version="1.0" encoding="utf-8"?>
<!-- Generator: Adobe Illustrator 15.0.0, SVG Export Plug-In . SVG Version: 6.00 Build 0)  -->
<!DOCTYPE svg PUBLIC "-//W3C//DTD SVG 1.1//EN" "http://www.w3.org/Graphics/SVG/1.1/DTD/svg11.dtd">
<svg version="1.1" id="Layer_1" xmlns="http://www.w3.org/2000/svg" xmlns:xlink="http://www.w3.org/1999/xlink" x="0px" y="0px"
	 width="256px" height="256px" viewBox="0 0 256 256" enable-background="new 0 0 256 256" xml:space="preserve">
<circle fill="#FFFFFF" cx="128" cy="128" r="113.597"/>
<path id="path26" fill="#BD2026" d="M130.343,40.595c-45.754,0-70.041,30.697-70.041,64.161c0,15.538,8.27,34.896,21.513,41.056
	c2.016,0.938,3.082,0.525,3.539-1.411c0.354-1.478,2.149-8.666,2.948-12.022c0.264-1.072,0.133-1.992-0.742-3.052
	c-4.359-5.292-7.87-15.075-7.87-24.18c0-23.375,17.702-45.993,47.855-45.993c26.057,0,44.275,17.736,44.275,43.117
	c0,28.682-14.459,48.542-33.313,48.542c-10.41,0-18.201-8.591-15.705-19.163c3-12.594,8.786-26.205,8.786-35.281
	c0-8.154-4.373-14.942-13.418-14.942c-10.633,0-19.185,11.007-19.185,25.754c0,9.386,3.179,15.728,3.179,15.728
	s-10.501,44.43-12.42,52.7c-3.274,14.035,0.428,36.773,0.755,38.759c0.166,1.066,1.351,1.426,2.02,0.53
	c1.033-1.377,13.696-20.369,17.278-34.103c1.271-4.955,6.586-25.199,6.586-25.199c3.475,6.594,13.556,12.168,24.298,12.168
	c31.968,0,55.016-29.413,55.016-65.935C195.698,66.802,167.121,40.596,130.343,40.595"/>
</svg>
