<?xml version="1.0" encoding="utf-8"?>
<!-- Generator: Adobe Illustrator 15.0.0, SVG Export Plug-In . SVG Version: 6.00 Build 0)  -->
<!DOCTYPE svg PUBLIC "-//W3C//DTD SVG 1.1//EN" "http://www.w3.org/Graphics/SVG/1.1/DTD/svg11.dtd">
<svg version="1.1" id="Layer_1" xmlns="http://www.w3.org/2000/svg" xmlns:xlink="http://www.w3.org/1999/xlink" x="0px" y="0px"
	 width="100px" height="84px" viewBox="-25.25 222.25 100 84" enable-background="new -25.25 222.25 100 84" xml:space="preserve">
<g>
	<path fill="#FFFFFF" d="M47.028,243.271c-0.053-0.387-0.392-0.603-0.672-0.625c-0.28-0.023-6.198-0.462-6.198-0.462
		s-4.11-4.081-4.562-4.532c-0.451-0.452-1.333-0.314-1.675-0.213c-0.051,0.014-0.898,0.276-2.301,0.709
		c-1.373-3.95-3.796-7.581-8.059-7.581c-0.117,0-0.238,0.005-0.36,0.013c-1.212-1.604-2.714-2.301-4.011-2.301
		c-9.93,0-14.675,12.413-16.163,18.723c-3.858,1.195-6.6,2.045-6.949,2.156c-2.154,0.675-2.222,0.742-2.505,2.771
		c-0.213,1.537-5.849,45.12-5.849,45.12l43.914,8.228l23.794-5.147C55.435,300.13,47.082,243.658,47.028,243.271L47.028,243.271z
		 M29.195,238.9c-1.103,0.341-2.356,0.729-3.715,1.149c0-0.263,0.002-0.521,0.002-0.801c0-2.456-0.341-4.433-0.888-6.001
		C26.791,233.524,28.253,236.023,29.195,238.9L29.195,238.9z M21.869,233.734c0.611,1.532,1.008,3.727,1.008,6.691
		c0,0.15-0.002,0.29-0.003,0.43c-2.417,0.749-5.042,1.561-7.674,2.377C16.678,237.528,19.448,234.775,21.869,233.734L21.869,233.734
		z M18.919,230.943c0.429,0,0.86,0.145,1.274,0.43c-3.183,1.498-6.594,5.269-8.035,12.801c-2.105,0.651-4.164,1.29-6.066,1.88
		C7.779,240.308,11.787,230.943,18.919,230.943L18.919,230.943z"/>
	<path fill="#FFFFFF" d="M46.356,242.646c-0.28-0.023-6.198-0.462-6.198-0.462s-4.11-4.081-4.562-4.532
		c-0.169-0.168-0.396-0.254-0.635-0.291l-3.32,67.916l23.792-5.147c0,0-8.353-56.472-8.406-56.858
		C46.976,242.885,46.636,242.669,46.356,242.646"/>
	<path fill="#FFFFFF" d="M23.563,255.794l-2.933,8.727c0,0-2.571-1.372-5.722-1.372c-4.619,0-4.852,2.899-4.852,3.63
		c0,3.985,10.39,5.514,10.39,14.849c0,7.347-4.659,12.076-10.94,12.076c-7.539,0-11.393-4.691-11.393-4.691l2.018-6.669
		c0,0,3.962,3.402,7.307,3.402c2.185,0,3.074-1.721,3.074-2.978c0-5.199-8.525-5.431-8.525-13.975
		c0-7.191,5.162-14.148,15.58-14.148C21.58,254.645,23.563,255.794,23.563,255.794"/>
</g>
</svg>
